<svg height="1502" width="720" xmlns="http://www.w3.org/2000/svg">
<rect height="1502" fill="#555" width="720"></rect>
<text fill="#7f7" font-family="Courier New" font-size="12" xml:space="preserve">
<tspan x="10" y="26">11 megabytes installed</tspan>
<tspan x="10" y="42"></tspan>
<tspan x="10" y="58">node_modules</tspan>
<tspan x="10" y="74">└─┬ ticons@0.23.1 </tspan>
<tspan x="10" y="90">  ├── async@0.2.10 </tspan>
<tspan x="10" y="106">  ├── colors@0.6.2 </tspan>
<tspan x="10" y="122">  ├─┬ commander@2.9.0 </tspan>
<tspan x="10" y="138">  │ └── graceful-readlink@1.0.1 </tspan>
<tspan x="10" y="154">  ├── fs-extended@0.2.1 </tspan>
<tspan x="10" y="170">  ├─┬ gm@1.17.0 </tspan>
<tspan x="10" y="186">  │ ├── array-parallel@0.1.3 </tspan>
<tspan x="10" y="202">  │ ├── array-series@0.1.5 </tspan>
<tspan x="10" y="218">  │ ├── debug@0.7.0 </tspan>
<tspan x="10" y="234">  │ └── through@2.3.8 </tspan>
<tspan x="10" y="250">  ├── semver@5.3.0 </tspan>
<tspan x="10" y="266">  ├── underscore@1.8.3 </tspan>
<tspan x="10" y="282">  └─┬ update-notifier@0.1.10 </tspan>
<tspan x="10" y="298">    ├─┬ chalk@0.4.0 </tspan>
<tspan x="10" y="314">    │ ├── ansi-styles@1.0.0 </tspan>
<tspan x="10" y="330">    │ ├── has-color@0.1.7 </tspan>
<tspan x="10" y="346">    │ └── strip-ansi@0.1.1 </tspan>
<tspan x="10" y="362">    ├─┬ configstore@0.3.2 </tspan>
<tspan x="10" y="378">    │ ├─┬ graceful-fs@3.0.11 </tspan>
<tspan x="10" y="394">    │ │ └── natives@1.1.0 </tspan>
<tspan x="10" y="410">    │ ├─┬ js-yaml@3.8.3 </tspan>
<tspan x="10" y="426">    │ │ ├─┬ argparse@1.0.9 </tspan>
<tspan x="10" y="442">    │ │ │ └── sprintf-js@1.0.3 </tspan>
<tspan x="10" y="458">    │ │ └── esprima@3.1.3 </tspan>
<tspan x="10" y="474">    │ ├─┬ mkdirp@0.5.1 </tspan>
<tspan x="10" y="490">    │ │ └── minimist@0.0.8 </tspan>
<tspan x="10" y="506">    │ ├── object-assign@2.1.1 </tspan>
<tspan x="10" y="522">    │ ├─┬ osenv@0.1.4 </tspan>
<tspan x="10" y="538">    │ │ ├── os-homedir@1.0.2 </tspan>
<tspan x="10" y="554">    │ │ └── os-tmpdir@1.0.2 </tspan>
<tspan x="10" y="570">    │ ├── user-home@1.1.1 </tspan>
<tspan x="10" y="586">    │ ├── uuid@2.0.3 </tspan>
<tspan x="10" y="602">    │ └── xdg-basedir@1.0.1 </tspan>
<tspan x="10" y="618">    ├─┬ request@2.81.0 </tspan>
<tspan x="10" y="634">    │ ├── aws-sign2@0.6.0 </tspan>
<tspan x="10" y="650">    │ ├── aws4@1.6.0 </tspan>
<tspan x="10" y="666">    │ ├── caseless@0.12.0 </tspan>
<tspan x="10" y="682">    │ ├─┬ combined-stream@1.0.5 </tspan>
<tspan x="10" y="698">    │ │ └── delayed-stream@1.0.0 </tspan>
<tspan x="10" y="714">    │ ├── extend@3.0.0 </tspan>
<tspan x="10" y="730">    │ ├── forever-agent@0.6.1 </tspan>
<tspan x="10" y="746">    │ ├─┬ form-data@2.1.4 </tspan>
<tspan x="10" y="762">    │ │ └── asynckit@0.4.0 </tspan>
<tspan x="10" y="778">    │ ├─┬ har-validator@4.2.1 </tspan>
<tspan x="10" y="794">    │ │ ├─┬ ajv@4.11.7 </tspan>
<tspan x="10" y="810">    │ │ │ ├── co@4.6.0 </tspan>
<tspan x="10" y="826">    │ │ │ └─┬ json-stable-stringify@1.0.1 </tspan>
<tspan x="10" y="842">    │ │ │   └── jsonify@0.0.0 </tspan>
<tspan x="10" y="858">    │ │ └── har-schema@1.0.5 </tspan>
<tspan x="10" y="874">    │ ├─┬ hawk@3.1.3 </tspan>
<tspan x="10" y="890">    │ │ ├── boom@2.10.1 </tspan>
<tspan x="10" y="906">    │ │ ├── cryptiles@2.0.5 </tspan>
<tspan x="10" y="922">    │ │ ├── hoek@2.16.3 </tspan>
<tspan x="10" y="938">    │ │ └── sntp@1.0.9 </tspan>
<tspan x="10" y="954">    │ ├─┬ http-signature@1.1.1 </tspan>
<tspan x="10" y="970">    │ │ ├── assert-plus@0.2.0 </tspan>
<tspan x="10" y="986">    │ │ ├─┬ jsprim@1.4.0 </tspan>
<tspan x="10" y="1002">    │ │ │ ├── assert-plus@1.0.0 </tspan>
<tspan x="10" y="1018">    │ │ │ ├── extsprintf@1.0.2 </tspan>
<tspan x="10" y="1034">    │ │ │ ├── json-schema@0.2.3 </tspan>
<tspan x="10" y="1050">    │ │ │ └── verror@1.3.6 </tspan>
<tspan x="10" y="1066">    │ │ └─┬ sshpk@1.13.0 </tspan>
<tspan x="10" y="1082">    │ │   ├── asn1@0.2.3 </tspan>
<tspan x="10" y="1098">    │ │   ├── assert-plus@1.0.0 </tspan>
<tspan x="10" y="1114">    │ │   ├── bcrypt-pbkdf@1.0.1 </tspan>
<tspan x="10" y="1130">    │ │   ├─┬ dashdash@1.14.1 </tspan>
<tspan x="10" y="1146">    │ │   │ └── assert-plus@1.0.0 </tspan>
<tspan x="10" y="1162">    │ │   ├── ecc-jsbn@0.1.1 </tspan>
<tspan x="10" y="1178">    │ │   ├─┬ getpass@0.1.6 </tspan>
<tspan x="10" y="1194">    │ │   │ └── assert-plus@1.0.0 </tspan>
<tspan x="10" y="1210">    │ │   ├── jodid25519@1.0.2 </tspan>
<tspan x="10" y="1226">    │ │   ├── jsbn@0.1.1 </tspan>
<tspan x="10" y="1242">    │ │   └── tweetnacl@0.14.5 </tspan>
<tspan x="10" y="1258">    │ ├── is-typedarray@1.0.0 </tspan>
<tspan x="10" y="1274">    │ ├── isstream@0.1.2 </tspan>
<tspan x="10" y="1290">    │ ├── json-stringify-safe@5.0.1 </tspan>
<tspan x="10" y="1306">    │ ├─┬ mime-types@2.1.15 </tspan>
<tspan x="10" y="1322">    │ │ └── mime-db@1.27.0 </tspan>
<tspan x="10" y="1338">    │ ├── oauth-sign@0.8.2 </tspan>
<tspan x="10" y="1354">    │ ├── performance-now@0.2.0 </tspan>
<tspan x="10" y="1370">    │ ├── qs@6.4.0 </tspan>
<tspan x="10" y="1386">    │ ├── safe-buffer@5.0.1 </tspan>
<tspan x="10" y="1402">    │ ├── stringstream@0.0.5 </tspan>
<tspan x="10" y="1418">    │ ├─┬ tough-cookie@2.3.2 </tspan>
<tspan x="10" y="1434">    │ │ └── punycode@1.4.1 </tspan>
<tspan x="10" y="1450">    │ ├── tunnel-agent@0.6.0 </tspan>
<tspan x="10" y="1466">    │ └── uuid@3.0.1 </tspan>
<tspan x="10" y="1482">    └── semver@2.3.2</tspan>
</text>
</svg>
